<svg width="24" height="24" viewBox="0 0 24 24" fill="none" xmlns="http://www.w3.org/2000/svg">
<path d="M9.0016 0.416C9.14802 0.593926 9.23773 0.811675 9.25912 1.04111C9.28051 1.27055 9.23261 1.50112 9.1216 1.70305C8.25435 3.29533 7.80145 5.08014 7.80455 6.89327C7.80455 12.925 12.7218 17.8092 18.782 17.8092C19.5725 17.8092 20.3421 17.7267 21.0816 17.5692C21.3083 17.5201 21.5444 17.5389 21.7605 17.6232C21.9766 17.7075 22.1631 17.8536 22.2967 18.0432C22.4376 18.2404 22.5095 18.4787 22.5011 18.7209C22.4927 18.9632 22.4045 19.1959 22.2501 19.3828C21.0736 20.828 19.5894 21.9924 17.9057 22.7912C16.222 23.59 14.3813 24.0029 12.5177 24C5.60245 24 0.0012207 18.4288 0.0012207 11.5645C0.0012207 6.39825 3.17235 1.96706 7.68754 0.0889866C7.91246 -0.00606957 8.16214 -0.0255794 8.3991 0.0333878C8.63605 0.092355 8.84747 0.226615 9.0016 0.416ZM7.28852 1.96556C5.55236 2.89685 4.10095 4.28112 3.08855 5.97128C2.07615 7.66143 1.54059 9.5943 1.53878 11.5645C1.53878 17.5947 6.45749 22.4789 12.5177 22.4789C13.969 22.4814 15.4063 22.1961 16.7465 21.6394C18.0867 21.0827 19.3032 20.2658 20.3256 19.2358C19.82 19.2988 19.3055 19.3303 18.782 19.3303C11.8667 19.3303 6.26698 13.7591 6.26698 6.89477C6.26698 5.1442 6.63 3.47763 7.28852 1.96556Z" fill="#F0F0F0"/>
<path d="M16.1929 4.72118C16.2144 4.65622 16.2558 4.59969 16.3113 4.55962C16.3668 4.51956 16.4335 4.49799 16.5019 4.49799C16.5703 4.49799 16.637 4.51956 16.6925 4.55962C16.748 4.59969 16.7894 4.65622 16.8109 4.72118L17.3914 6.46425C17.651 7.24129 18.26 7.85031 19.037 8.10982L20.7801 8.69035C20.845 8.71186 20.9016 8.75329 20.9416 8.80877C20.9817 8.86424 21.0033 8.93093 21.0033 8.99936C21.0033 9.06779 20.9817 9.13448 20.9416 9.18995C20.9016 9.24543 20.845 9.28686 20.7801 9.30837L19.037 9.8889C18.6538 10.0166 18.3056 10.2318 18.0199 10.5174C17.7343 10.803 17.5191 11.1512 17.3914 11.5345L16.8109 13.2775C16.7894 13.3425 16.748 13.399 16.6925 13.4391C16.637 13.4792 16.5703 13.5007 16.5019 13.5007C16.4335 13.5007 16.3668 13.4792 16.3113 13.4391C16.2558 13.399 16.2144 13.3425 16.1929 13.2775L15.6124 11.5345C15.4847 11.1512 15.2695 10.803 14.9839 10.5174C14.6983 10.2318 14.35 10.0166 13.9668 9.8889L12.2237 9.30837C12.1588 9.28686 12.1022 9.24543 12.0622 9.18995C12.0221 9.13448 12.0005 9.06779 12.0005 8.99936C12.0005 8.93093 12.0221 8.86424 12.0622 8.80877C12.1022 8.75329 12.1588 8.71186 12.2237 8.69035L13.9668 8.10982C14.35 7.98214 14.6983 7.76696 14.9839 7.48133C15.2695 7.19571 15.4847 6.84748 15.6124 6.46425L16.1929 4.72118ZM20.7966 0.147489C20.8114 0.104777 20.8391 0.0677396 20.876 0.041527C20.9128 0.0153145 20.9569 0.00122901 21.0021 0.00122901C21.0473 0.00122901 21.0914 0.0153145 21.1282 0.041527C21.165 0.0677396 21.1928 0.104777 21.2076 0.147489L21.5946 1.30854C21.7671 1.82756 22.1736 2.23408 22.6927 2.40658L23.8537 2.7936C23.8964 2.80841 23.9335 2.83616 23.9597 2.87299C23.9859 2.90982 24 2.9539 24 2.99911C24 3.04431 23.9859 3.0884 23.9597 3.12523C23.9335 3.16206 23.8964 3.18981 23.8537 3.20462L22.6927 3.59163C22.4369 3.67672 22.2045 3.82027 22.0139 4.01087C21.8233 4.20148 21.6797 4.4339 21.5946 4.68968L21.2076 5.85073C21.1928 5.89344 21.165 5.93048 21.1282 5.95669C21.0914 5.9829 21.0473 5.99699 21.0021 5.99699C20.9569 5.99699 20.9128 5.9829 20.876 5.95669C20.8391 5.93048 20.8114 5.89344 20.7966 5.85073L20.4096 4.68968C20.3245 4.4339 20.1809 4.20148 19.9903 4.01087C19.7997 3.82027 19.5673 3.67672 19.3115 3.59163L18.1505 3.20462C18.1078 3.18981 18.0707 3.16206 18.0445 3.12523C18.0183 3.0884 18.0042 3.04431 18.0042 2.99911C18.0042 2.9539 18.0183 2.90982 18.0445 2.87299C18.0707 2.83616 18.1078 2.80841 18.1505 2.7936L19.3115 2.40658C19.8305 2.23408 20.2371 1.82756 20.4096 1.30854L20.7966 0.148989V0.147489Z" fill="#111217"/>
</svg>
